
        <svg xmlns="http://www.w3.org/2000/svg" xmlns:xlink="http://www.w3.org/1999/xlink" version="1.1" width="3162.1110478539827" height="836.9302102062355" viewBox="0 0 3162.1110478539827 836.9302102062355">
			
			<g transform="scale(8.10555239269914) translate(10, 10)">
				<defs id="SvgjsDefs1442"/><g id="SvgjsG1443" featureKey="HKaMnE-0" transform="matrix(1.0075688680735824,0,0,1.0075688680735824,-0.7212358448974658,-3.6196601937355872)" fill="#fff"><g xmlns="http://www.w3.org/2000/svg"><path d="M67.539,22.815H20.016c-1.04,0-1.884-0.844-1.884-1.885c0-1.041,0.844-1.885,1.884-1.885h47.523   c1.04,0,1.885,0.844,1.885,1.885C69.424,21.972,68.579,22.815,67.539,22.815z"/></g><g xmlns="http://www.w3.org/2000/svg"><path d="M38.493,34.586H20.016c-1.04,0-1.884-0.844-1.884-1.885c0-1.042,0.844-1.886,1.884-1.886h18.477   c1.042,0,1.885,0.844,1.885,1.886C40.378,33.742,39.534,34.586,38.493,34.586z"/></g><g xmlns="http://www.w3.org/2000/svg"><path d="M54.605,58.169h-34.59c-1.04,0-1.884-0.843-1.884-1.885c0-1.04,0.844-1.885,1.884-1.885h34.59   c1.042,0,1.887,0.845,1.887,1.885C56.492,57.326,55.647,58.169,54.605,58.169z"/></g><g xmlns="http://www.w3.org/2000/svg"><path d="M83.118,58.169H63.503c-1.04,0-1.884-0.843-1.884-1.885c0-1.04,0.844-1.885,1.884-1.885h19.615   c1.041,0,1.885,0.845,1.885,1.885C85.003,57.326,84.159,58.169,83.118,58.169z"/></g><g xmlns="http://www.w3.org/2000/svg"><path d="M82.701,46.36H20.016c-1.04,0-1.884-0.844-1.884-1.885c0-1.042,0.844-1.884,1.884-1.884h62.686   c1.041,0,1.886,0.843,1.886,1.884C84.587,45.517,83.742,46.36,82.701,46.36z"/></g><g xmlns="http://www.w3.org/2000/svg"><path d="M12.909,27.367c-0.496,0-0.991-0.194-1.361-0.582l-4.355-4.552c-0.694-0.726-0.697-1.87-0.005-2.6   l4.297-4.535c0.717-0.756,1.91-0.787,2.666-0.071c0.754,0.716,0.788,1.909,0.072,2.665l-3.064,3.232l3.115,3.254   c0.718,0.753,0.691,1.946-0.06,2.666C13.847,27.193,13.378,27.367,12.909,27.367z"/></g><g xmlns="http://www.w3.org/2000/svg"><path d="M12.909,74.438c-0.496,0-0.991-0.193-1.361-0.581l-4.355-4.552c-0.694-0.729-0.697-1.872-0.005-2.602   l4.297-4.531c0.718-0.755,1.91-0.787,2.666-0.071c0.754,0.717,0.787,1.907,0.072,2.663l-3.064,3.23l3.115,3.254   c0.718,0.754,0.691,1.946-0.06,2.664C13.847,74.264,13.378,74.438,12.909,74.438z"/></g><g xmlns="http://www.w3.org/2000/svg"><path d="M71.189,86.221c-0.466,0-0.933-0.172-1.297-0.518c-0.756-0.715-0.787-1.909-0.071-2.665l3.063-3.229   l-3.113-3.258c-0.721-0.752-0.693-1.944,0.06-2.665c0.752-0.719,1.944-0.692,2.665,0.061l4.354,4.555   c0.694,0.726,0.696,1.869,0.006,2.599l-4.299,4.534C72.187,86.022,71.688,86.221,71.189,86.221z"/></g><g xmlns="http://www.w3.org/2000/svg"><path d="M88.704,62.324c-0.466,0-0.932-0.171-1.297-0.517c-0.756-0.716-0.788-1.909-0.072-2.665l3.063-3.232   l-3.112-3.253c-0.72-0.752-0.692-1.945,0.059-2.666c0.751-0.718,1.945-0.693,2.665,0.06l4.354,4.551   c0.694,0.725,0.697,1.869,0.006,2.599l-4.297,4.534C89.702,62.128,89.203,62.324,88.704,62.324z"/></g><g xmlns="http://www.w3.org/2000/svg"><path d="M44.114,69.901H20.016c-1.04,0-1.884-0.842-1.884-1.885c0-1.04,0.844-1.884,1.884-1.884h24.098   c1.041,0,1.885,0.844,1.885,1.884C45.999,69.06,45.154,69.901,44.114,69.901z"/></g><g xmlns="http://www.w3.org/2000/svg"><path d="M82.701,69.895H52.978c-1.041,0-1.885-0.844-1.885-1.884c0-1.044,0.844-1.886,1.885-1.886h29.724   c1.041,0,1.886,0.842,1.886,1.886C84.587,69.051,83.742,69.895,82.701,69.895z"/></g><g xmlns="http://www.w3.org/2000/svg"><path d="M65.816,81.679H20.016c-1.04,0-1.884-0.845-1.884-1.886c0-1.042,0.844-1.886,1.884-1.886h45.801   c1.042,0,1.886,0.844,1.886,1.886C67.702,80.834,66.858,81.679,65.816,81.679z"/></g></g><g id="SvgjsG1444" featureKey="J3GnXt-0" transform="matrix(1.9290533496482016,0,0,1.9290533496482016,106.1064199755277,20.586219432954138)" fill="#fff"><path d="M6.54 5.84 c1.5067 0 2.8134 0.31 3.92 0.93 s1.9533 1.47 2.54 2.55 s0.88 2.28 0.88 3.6 s-0.32666 2.5234 -0.98 3.61 s-1.5667 1.9367 -2.74 2.55 s-2.48 0.92 -3.92 0.92 l-4.74 0 l0 -14.16 l5.04 0 z M5.94 18.2 c1.08 0 2.07 -0.21002 2.97 -0.63002 s1.6133 -1.0233 2.14 -1.81 s0.79 -1.7333 0.79 -2.84 c0 -1.6 -0.49666 -2.88 -1.49 -3.84 s-2.31 -1.44 -3.95 -1.44 l-2.98 0 l0 10.56 l2.52 0 z M17.22 5.800000000000001 c0.36 0 0.67002 0.13002 0.93002 0.39002 s0.39 0.57 0.39 0.93 c0 0.37334 -0.13334 0.68668 -0.4 0.94002 s-0.57332 0.38 -0.91998 0.38 c-0.37334 0 -0.68668 -0.12666 -0.94002 -0.38 s-0.38 -0.56668 -0.38 -0.94002 s0.13334 -0.68668 0.4 -0.94002 s0.57332 -0.38 0.91998 -0.38 z M18.12 10.52 l0.000019531 11.02 c0 2.1734 -0.96666 3.26 -2.9 3.26 c-0.44 0 -0.82666 -0.06 -1.16 -0.18 l0.2 -1.66 c0.32 0.10666 0.56666 0.16 0.74 0.16 c0.50666 0 0.85332 -0.15666 1.04 -0.47 s0.28 -0.74334 0.28 -1.29 l0 -10.84 l1.8 0 z M24.78 10.28 c1.2 0 2.15 0.27328 2.85 0.81994 s1.07 1.3067 1.11 2.28 l0 5.08 c0 0.48 0.02666 0.99334 0.08 1.54 l-1.6 0 c-0.04 -0.42666 -0.06 -0.90666 -0.06 -1.44 l-0.04 0 c-0.41334 0.61334 -0.89 1.0467 -1.43 1.3 s-1.17 0.38 -1.89 0.38 c-0.97334 0 -1.7633 -0.26 -2.37 -0.78 s-0.91 -1.2067 -0.91 -2.06 c0 -1.08 0.45334 -1.8967 1.36 -2.45 s2.1866 -0.83 3.84 -0.83 l1.34 0 l0 -0.34 c0 -0.64 -0.21 -1.1433 -0.63 -1.51 s-0.97 -0.55 -1.65 -0.55 c-0.50666 0 -0.95 0.07666 -1.33 0.23 s-0.83 0.43668 -1.35 0.85002 l-1.08 -1.12 c1.0267 -0.90666 2.28 -1.3733 3.76 -1.4 z M22.32 17.259999999999998 c0 1.0267 0.68002 1.54 2.04 1.54 c0.81334 0 1.4633 -0.24334 1.95 -0.73 s0.73666 -1.19 0.75 -2.11 l0 -0.52 l-1.02 0 c-1.1733 0 -2.0866 0.15 -2.74 0.45 s-0.98 0.75666 -0.98 1.37 z M36.32 10.28 c1.0667 0 1.9033 0.32 2.51 0.96 s0.91666 1.5 0.93 2.58 l0 6.18 l-1.8 0 l0 -5.66 c0 -0.73334 -0.19 -1.3133 -0.57 -1.74 s-0.91 -0.64 -1.59 -0.64 c-0.84 0 -1.49 0.28 -1.95 0.84 s-0.69 1.3067 -0.69 2.24 l0 4.96 l-1.8 0 l0 -9.48 l1.8 0 l0 1.46 l0.04 0 c0.25334 -0.53334 0.66334 -0.95 1.23 -1.25 s1.1967 -0.45 1.89 -0.45 z M46.84 10.28 c0.68 0 1.3133 0.13998 1.9 0.41998 s1.0533 0.67334 1.4 1.18 l0.04 0 l0 -1.36 l1.8 0 l0 9.48 c-0.01334 1.4 -0.49334 2.5466 -1.44 3.44 s-2.1934 1.3467 -3.74 1.36 c-1.96 0 -3.5066 -0.56666 -4.64 -1.7 l1.22 -1.52 c0.94666 1.0267 2.08 1.54 3.4 1.54 c1.1333 0 1.9833 -0.29 2.55 -0.87 s0.85 -1.37 0.85 -2.37 l0 -1.44 l-0.06 0 c-0.32 0.56 -0.78334 0.98 -1.39 1.26 s-1.2367 0.42 -1.89 0.42 c-1.3867 0 -2.5334 -0.46334 -3.44 -1.39 s-1.3667 -2.07 -1.38 -3.43 c0.01334 -1.52 0.47 -2.7334 1.37 -3.64 s2.05 -1.3667 3.45 -1.38 z M43.940000000000005 15.26 c0 0.94666 0.27662 1.7067 0.82996 2.28 s1.3167 0.87334 2.29 0.9 c0.96 0 1.7167 -0.28666 2.27 -0.86 s0.83668 -1.3467 0.85002 -2.32 c0 -0.98666 -0.28334 -1.78 -0.85 -2.38 s-1.33 -0.90666 -2.29 -0.92 c-0.94666 0 -1.7 0.31334 -2.26 0.94 s-0.84 1.4133 -0.84 2.36 z M59.28 10.28 c1.4 0 2.5866 0.48338 3.56 1.45 s1.4667 2.1434 1.48 3.53 c0 1.4 -0.48666 2.5734 -1.46 3.52 s-2.1666 1.4333 -3.58 1.46 c-1.3867 0 -2.5666 -0.48 -3.54 -1.44 s-1.4733 -2.14 -1.5 -3.54 c0 -1.3733 0.48334 -2.54 1.45 -3.5 s2.1634 -1.4533 3.59 -1.48 z M56.160000000000004 15.26 c0 0.97334 0.28664 1.7633 0.85998 2.37 s1.3267 0.91666 2.26 0.93 c0.94666 0 1.7 -0.30334 2.26 -0.91 s0.84666 -1.4033 0.86 -2.39 c0 -0.97334 -0.28 -1.7633 -0.84 -2.37 s-1.3267 -0.91666 -2.3 -0.93 c-0.94666 0 -1.7 0.31334 -2.26 0.94 s-0.84 1.4133 -0.84 2.36 z M82.04 5.84 l0 1.8 l-4.56 0 l0 12.36 l-1.92 0 l0 -12.36 l-4.56 0 l0 -1.8 l11.04 0 z M83.4 10.52 l0 5.68 c0 0.74666 0.19666 1.3267 0.59 1.74 s0.91668 0.62 1.57 0.62 c0.84 0 1.49 -0.27666 1.95 -0.83 s0.69 -1.3033 0.69 -2.25 l0 -4.96 l1.8 0 l0 9.48 l-1.8 0 l0 -1.46 l-0.04 0 c-0.25334 0.53334 -0.66668 0.95 -1.24 1.25 s-1.2 0.45 -1.88 0.45 c-1.0533 0 -1.89 -0.32666 -2.51 -0.98 s-0.93 -1.5067 -0.93 -2.56 l0 -6.18 l1.8 0 z M95.22000000000001 7.859999999999999 l-0.000019531 2.66 l2.58 0 l0 1.56 l-2.58 0 l0 4.56 c0 0.61334 0.08666 1.0867 0.26 1.42 s0.54 0.5 1.1 0.5 c0.53334 0 0.96 -0.09334 1.28 -0.28 l0 1.64 c-0.34666 0.18666 -0.89332 0.29332 -1.64 0.31998 c-0.72 0 -1.2767 -0.11 -1.67 -0.33 s-0.68 -0.52666 -0.86 -0.92 s-0.27 -1.01 -0.27 -1.85 l0 -5.06 l-2.08 0 l0 -1.56 l2.08 0 l0 -2.66 l1.8 0 z M105.28000000000002 10.28 c1.4 0 2.5434 0.45998 3.43 1.38 s1.3433 2.12 1.37 3.6 c0 1.48 -0.45334 2.6766 -1.36 3.59 s-2.06 1.3767 -3.46 1.39 c-0.69334 0 -1.34 -0.14666 -1.94 -0.44 s-1.0533 -0.68 -1.36 -1.16 l-0.04 0 l0 7 l-1.8 0 l0 -15.12 l1.8 0 l0 1.36 l0.04 0 c0.36 -0.50666 0.83334 -0.9 1.42 -1.18 s1.22 -0.42 1.9 -0.42 z M101.92000000000002 15.26 c0 0.98666 0.28998 1.7833 0.86998 2.39 s1.33 0.91 2.25 0.91 c0.96 0 1.7167 -0.30334 2.27 -0.91 s0.83668 -1.4033 0.85002 -2.39 c0 -0.98666 -0.28334 -1.78 -0.85 -2.38 s-1.33 -0.90666 -2.29 -0.92 c-0.94666 0 -1.7 0.31 -2.26 0.93 s-0.84 1.41 -0.84 2.37 z M117.02000000000002 10.28 c0.33334 0 0.6 0.04 0.8 0.12 l-0.08 1.94 c-0.34666 -0.09334 -0.64666 -0.14 -0.9 -0.14 c-1.7733 0 -2.6734 0.98666 -2.7 2.96 l0 4.84 l-1.8 0 l0 -9.48 l1.8 0 l0 1.46 l0.04 0 c0.24 -0.50666 0.62666 -0.91666 1.16 -1.23 s1.0933 -0.47 1.68 -0.47 z M120.78000000000003 5.800000000000001 c0.36 0 0.67002 0.13002 0.93002 0.39002 s0.39 0.57 0.39 0.93 c0 0.37334 -0.13334 0.68668 -0.4 0.94002 s-0.57332 0.38 -0.91998 0.38 c-0.37334 0 -0.68668 -0.12666 -0.94002 -0.38 s-0.38 -0.56668 -0.38 -0.94002 s0.13334 -0.68668 0.4 -0.94002 s0.57332 -0.38 0.91998 -0.38 z M121.68000000000002 10.52 l0 9.48 l-1.8 0 l0 -9.48 l1.8 0 z M128.34000000000003 10.28 c1.2 0 2.15 0.27328 2.85 0.81994 s1.07 1.3067 1.11 2.28 l0 5.08 c0 0.48 0.02666 0.99334 0.08 1.54 l-1.6 0 c-0.04 -0.42666 -0.06 -0.90666 -0.06 -1.44 l-0.04 0 c-0.41334 0.61334 -0.89 1.0467 -1.43 1.3 s-1.17 0.38 -1.89 0.38 c-0.97334 0 -1.7633 -0.26 -2.37 -0.78 s-0.91 -1.2067 -0.91 -2.06 c0 -1.08 0.45334 -1.8967 1.36 -2.45 s2.1866 -0.83 3.84 -0.83 l1.34 0 l0 -0.34 c0 -0.64 -0.21 -1.1433 -0.63 -1.51 s-0.97 -0.55 -1.65 -0.55 c-0.50666 0 -0.95 0.07666 -1.33 0.23 s-0.83 0.43668 -1.35 0.85002 l-1.08 -1.12 c1.0267 -0.90666 2.28 -1.3733 3.76 -1.4 z M125.88000000000002 17.259999999999998 c0 1.0267 0.68002 1.54 2.04 1.54 c0.81334 0 1.4633 -0.24334 1.95 -0.73 s0.73666 -1.19 0.75 -2.11 l0 -0.52 l-1.02 0 c-1.1733 0 -2.0866 0.15 -2.74 0.45 s-0.98 0.75666 -0.98 1.37 z M136.86000000000004 4.880000000000001 l0 15.12 l-1.8 0 l0 -15.12 l1.8 0 z"/></g>
			</g>
		</svg>
	