
        <svg xmlns="http://www.w3.org/2000/svg" xmlns:xlink="http://www.w3.org/1999/xlink" version="1.1" width="3187.5" height="949.6008564595456" viewBox="0 0 3187.5 949.6008564595456">
			
			<g transform="scale(9.375) translate(10, 10)">
				<defs id="SvgjsDefs2690"/><g id="SvgjsG2691" featureKey="symbolFeature-0" transform="matrix(1.1335857736507555,0,0,1.1335857736507555,-7.5618625947570095,-16.448144971879596)" fill="#fff"><g xmlns="http://www.w3.org/2000/svg"><path d="M67.539,22.815H20.016c-1.04,0-1.884-0.844-1.884-1.885c0-1.041,0.844-1.885,1.884-1.885h47.523   c1.04,0,1.885,0.844,1.885,1.885C69.424,21.972,68.579,22.815,67.539,22.815z"/></g><g xmlns="http://www.w3.org/2000/svg"><path d="M38.493,34.586H20.016c-1.04,0-1.884-0.844-1.884-1.885c0-1.042,0.844-1.886,1.884-1.886h18.477   c1.042,0,1.885,0.844,1.885,1.886C40.378,33.742,39.534,34.586,38.493,34.586z"/></g><g xmlns="http://www.w3.org/2000/svg"><path d="M54.605,58.169h-34.59c-1.04,0-1.884-0.843-1.884-1.885c0-1.04,0.844-1.885,1.884-1.885h34.59   c1.042,0,1.887,0.845,1.887,1.885C56.492,57.326,55.647,58.169,54.605,58.169z"/></g><g xmlns="http://www.w3.org/2000/svg"><path d="M83.118,58.169H63.503c-1.04,0-1.884-0.843-1.884-1.885c0-1.04,0.844-1.885,1.884-1.885h19.615   c1.041,0,1.885,0.845,1.885,1.885C85.003,57.326,84.159,58.169,83.118,58.169z"/></g><g xmlns="http://www.w3.org/2000/svg"><path d="M82.701,46.36H20.016c-1.04,0-1.884-0.844-1.884-1.885c0-1.042,0.844-1.884,1.884-1.884h62.686   c1.041,0,1.886,0.843,1.886,1.884C84.587,45.517,83.742,46.36,82.701,46.36z"/></g><g xmlns="http://www.w3.org/2000/svg"><path d="M12.909,27.367c-0.496,0-0.991-0.194-1.361-0.582l-4.355-4.552c-0.694-0.726-0.697-1.87-0.005-2.6   l4.297-4.535c0.717-0.756,1.91-0.787,2.666-0.071c0.754,0.716,0.788,1.909,0.072,2.665l-3.064,3.232l3.115,3.254   c0.718,0.753,0.691,1.946-0.06,2.666C13.847,27.193,13.378,27.367,12.909,27.367z"/></g><g xmlns="http://www.w3.org/2000/svg"><path d="M12.909,74.438c-0.496,0-0.991-0.193-1.361-0.581l-4.355-4.552c-0.694-0.729-0.697-1.872-0.005-2.602   l4.297-4.531c0.718-0.755,1.91-0.787,2.666-0.071c0.754,0.717,0.787,1.907,0.072,2.663l-3.064,3.23l3.115,3.254   c0.718,0.754,0.691,1.946-0.06,2.664C13.847,74.264,13.378,74.438,12.909,74.438z"/></g><g xmlns="http://www.w3.org/2000/svg"><path d="M71.189,86.221c-0.466,0-0.933-0.172-1.297-0.518c-0.756-0.715-0.787-1.909-0.071-2.665l3.063-3.229   l-3.113-3.258c-0.721-0.752-0.693-1.944,0.06-2.665c0.752-0.719,1.944-0.692,2.665,0.061l4.354,4.555   c0.694,0.726,0.696,1.869,0.006,2.599l-4.299,4.534C72.187,86.022,71.688,86.221,71.189,86.221z"/></g><g xmlns="http://www.w3.org/2000/svg"><path d="M88.704,62.324c-0.466,0-0.932-0.171-1.297-0.517c-0.756-0.716-0.788-1.909-0.072-2.665l3.063-3.232   l-3.112-3.253c-0.72-0.752-0.692-1.945,0.059-2.666c0.751-0.718,1.945-0.693,2.665,0.06l4.354,4.551   c0.694,0.725,0.697,1.869,0.006,2.599l-4.297,4.534C89.702,62.128,89.203,62.324,88.704,62.324z"/></g><g xmlns="http://www.w3.org/2000/svg"><path d="M44.114,69.901H20.016c-1.04,0-1.884-0.842-1.884-1.885c0-1.04,0.844-1.884,1.884-1.884h24.098   c1.041,0,1.885,0.844,1.885,1.884C45.999,69.06,45.154,69.901,44.114,69.901z"/></g><g xmlns="http://www.w3.org/2000/svg"><path d="M82.701,69.895H52.978c-1.041,0-1.885-0.844-1.885-1.884c0-1.044,0.844-1.886,1.885-1.886h29.724   c1.041,0,1.886,0.842,1.886,1.886C84.587,69.051,83.742,69.895,82.701,69.895z"/></g><g xmlns="http://www.w3.org/2000/svg"><path d="M65.816,81.679H20.016c-1.04,0-1.884-0.845-1.884-1.886c0-1.042,0.844-1.886,1.884-1.886h45.801   c1.042,0,1.886,0.844,1.886,1.886C67.702,80.834,66.858,81.679,65.816,81.679z"/></g></g><g id="SvgjsG2692" featureKey="nameFeature-0" transform="matrix(0.7029383091617845,0,0,0.7029383091617845,118.05988943544945,19.95838670852805)" fill="#fff"><path d="M15 11.440000000000001 c4.0532 0 7.24 1.2533 9.56 3.76 s3.48 5.96 3.48 10.36 c0 4.56 -1.1667 8.1068 -3.5 10.64 s-5.46 3.8 -9.38 3.8 l-12.4 0 l0 -28.56 l12.24 0 z M14.6 34.72 c2.2667 0 4.0268 -0.74668 5.28 -2.24 s1.88 -3.6133 1.88 -6.36 c0 -3.1467 -0.67332 -5.5 -2.02 -7.06 s-3.42 -2.34 -6.22 -2.34 l-4.48 0 l0 18 l5.56 0 z M38 11.440000000000001 l0 4.68 l-5.68 0 l0 -4.68 l5.68 0 z M38 19.32 l0.000039062 21.84 c0 1.4933 -0.22 2.6666 -0.66 3.52 s-1.16 1.5 -2.16 1.94 s-2.4733 0.66 -4.42 0.66 c-0.74668 0 -1.3734 -0.05332 -1.88 -0.16 l0 -4.68 c0.32 0.10668 0.74668 0.16 1.28 0.16 c0.82668 0 1.4 -0.16668 1.72 -0.5 s0.46668 -0.79332 0.44 -1.38 l0 -21.4 l5.68 0 z M52.440000000000005 18.76 c6.0268 0.02668 9.04 1.9866 9.04 5.88 l0 10.96 c0 2.0267 0.24 3.4934 0.72 4.4 l-5.76 0 c-0.21332 -0.64 -0.34664 -1.3067 -0.39996 -2 c-1.68 1.7067 -4 2.56 -6.96 2.56 c-2.16 0 -3.8733 -0.54668 -5.14 -1.64 s-1.9 -2.6133 -1.9 -4.56 c0 -1.8933 0.6 -3.36 1.8 -4.4 c1.2267 -1.0933 3.4534 -1.7866 6.68 -2.08 c2.2933 -0.24 3.7466 -0.54 4.36 -0.9 s0.92 -0.91332 0.92 -1.66 c0 -0.93332 -0.28 -1.6266 -0.84 -2.08 s-1.4933 -0.68 -2.8 -0.68 c-1.2 0 -2.1067 0.24668 -2.72 0.74 s-0.97332 1.2866 -1.08 2.38 l-5.68 0 c0.13332 -2.2667 1.0666 -3.9867 2.8 -5.16 s4.0532 -1.76 6.96 -1.76 z M47.720000000000006 34.12 c0 1.76 1.16 2.64 3.48 2.64 c3.04 -0.02668 4.5732 -1.5867 4.6 -4.68 l0 -2.2 c-0.45332 0.45332 -1.6 0.78664 -3.44 0.99996 c-1.6 0.18668 -2.7733 0.51336 -3.52 0.98004 s-1.12 1.22 -1.12 2.26 z M77.76 18.76 c2.64 0 4.5532 0.66676 5.74 2.0001 s1.78 3.4533 1.78 6.36 l0 12.88 l-5.68 0 l0 -11.72 c0 -1.7067 -0.27332 -2.9734 -0.82 -3.8 s-1.4867 -1.24 -2.82 -1.24 c-1.5467 0 -2.6667 0.46668 -3.36 1.4 s-1.04 2.4666 -1.04 4.6 l0 10.76 l-5.68 0 l0 -20.68 l5.4 0 l0 2.88 l0.12 0 c1.4133 -2.2933 3.5333 -3.44 6.36 -3.44 z M97.84 18.76 c2.8533 0 4.9068 1.1066 6.16 3.32 l0.08 0 l0 -2.76 l5.4 0 l0 19.4 c0 2.9867 -0.92668 5.2532 -2.78 6.8 s-4.4868 2.32 -7.9 2.32 c-2.6133 0 -4.7668 -0.62668 -6.46 -1.88 s-2.5933 -2.84 -2.7 -4.76 l5.64 0 c0.45332 1.8933 1.8666 2.84 4.24 2.84 c1.4667 0 2.5934 -0.43332 3.38 -1.3 s1.18 -2.1 1.18 -3.7 l0 -2.84 l-0.08 0 c-0.56 1.0133 -1.38 1.8 -2.46 2.36 s-2.3267 0.84 -3.74 0.84 c-2.7733 0 -4.94 -0.90668 -6.5 -2.72 s-2.34 -4.3732 -2.34 -7.68 c0 -2.9333 0.82 -5.3732 2.46 -7.32 s3.78 -2.92 6.42 -2.92 z M94.64 28.92 c0 1.9467 0.40672 3.4666 1.22 4.56 s1.94 1.64 3.38 1.64 c1.4667 0 2.64 -0.52668 3.52 -1.58 s1.32 -2.4466 1.32 -4.18 c0 -2.08 -0.42 -3.6533 -1.26 -4.72 s-2.0467 -1.6 -3.62 -1.6 c-1.4667 0 -2.5934 0.55332 -3.38 1.66 s-1.18 2.5134 -1.18 4.22 z M124.08 18.76 c3.3067 0 5.92 1.0067 7.84 3.02 s2.88 4.6468 2.88 7.9 c0 3.28 -0.98 5.9132 -2.94 7.9 s-4.5532 2.98 -7.78 2.98 c-3.28 0 -5.88 -1.0067 -7.8 -3.02 s-2.88 -4.6332 -2.88 -7.86 c0 -3.3333 0.98 -5.9868 2.94 -7.96 s4.54 -2.96 7.74 -2.96 z M119.08 29.68 c0 2.1067 0.42668 3.7333 1.28 4.88 s2.0933 1.72 3.72 1.72 c1.68 0 2.94 -0.58668 3.78 -1.76 s1.26 -2.7866 1.26 -4.84 c0 -2.1333 -0.43332 -3.7733 -1.3 -4.92 s-2.1267 -1.72 -3.78 -1.72 c-1.6 0 -2.8267 0.57332 -3.68 1.72 s-1.28 2.7867 -1.28 4.92 z M171.36 11.440000000000001 l0 5.28 l-8.56 0 l0 23.28 l-6.28 0 l0 -23.28 l-8.56 0 l0 -5.28 l23.4 0 z M176.04 19.32 l0 11.72 c0 1.6 0.25332 2.84 0.76 3.72 s1.4667 1.32 2.88 1.32 c1.5733 0 2.7 -0.46668 3.38 -1.4 s1.02 -2.4266 1.02 -4.48 l0 -10.88 l5.68 0 l0 20.68 l-5.4 0 l0 -2.88 l-0.12 0 c-1.4133 2.2933 -3.5333 3.44 -6.36 3.44 c-2.6933 0 -4.62 -0.68668 -5.78 -2.06 s-1.74 -3.4866 -1.74 -6.34 l0 -12.84 l5.68 0 z M201.27999999999997 13.120000000000001 l0.000039062 6.2 l4.16 0 l0 3.8 l-4.16 0 l0 10.24 c0 0.96 0.16 1.6 0.48 1.92 s0.96 0.48 1.92 0.48 c0.69332 0 1.28 -0.05332 1.76 -0.16 l0 4.44 c-0.8 0.13332 -1.92 0.2 -3.36 0.2 c-2.1867 0 -3.8134 -0.37332 -4.88 -1.12 s-1.6 -2.04 -1.6 -3.88 l0 -12.12 l-3.44 0 l0 -3.8 l3.44 0 l0 -6.2 l5.68 0 z M218.2 18.76 c3.3067 0 5.92 1.0067 7.84 3.02 s2.88 4.6468 2.88 7.9 c0 3.28 -0.98 5.9132 -2.94 7.9 s-4.5532 2.98 -7.78 2.98 c-3.28 0 -5.88 -1.0067 -7.8 -3.02 s-2.88 -4.6332 -2.88 -7.86 c0 -3.3333 0.98 -5.9868 2.94 -7.96 s4.54 -2.96 7.74 -2.96 z M213.2 29.68 c0 2.1067 0.42668 3.7333 1.28 4.88 s2.0933 1.72 3.72 1.72 c1.68 0 2.94 -0.58668 3.78 -1.76 s1.26 -2.7866 1.26 -4.84 c0 -2.1333 -0.43332 -3.7733 -1.3 -4.92 s-2.1267 -1.72 -3.78 -1.72 c-1.6 0 -2.8267 0.57332 -3.68 1.72 s-1.28 2.7867 -1.28 4.92 z M244.68 18.76 c0.48 0 0.89336 0.06668 1.24 0.2 l0 5.28 c-0.61332 -0.13332 -1.2933 -0.2 -2.04 -0.2 c-3.7333 0 -5.6 2.2133 -5.6 6.64 l0 9.32 l-5.68 0 l0 -20.68 l5.4 0 l0 3.84 l0.08 0 c0.56 -1.3333 1.4467 -2.4 2.66 -3.2 s2.5266 -1.2 3.94 -1.2 z M254 11.440000000000001 l0 4.68 l-5.68 0 l0 -4.68 l5.68 0 z M254 19.32 l0 20.68 l-5.68 0 l0 -20.68 l5.68 0 z M268 18.76 c6.0268 0.02668 9.04 1.9866 9.04 5.88 l0 10.96 c0 2.0267 0.24 3.4934 0.72 4.4 l-5.76 0 c-0.21332 -0.64 -0.34664 -1.3067 -0.39996 -2 c-1.68 1.7067 -4 2.56 -6.96 2.56 c-2.16 0 -3.8733 -0.54668 -5.14 -1.64 s-1.9 -2.6133 -1.9 -4.56 c0 -1.8933 0.6 -3.36 1.8 -4.4 c1.2267 -1.0933 3.4534 -1.7866 6.68 -2.08 c2.2933 -0.24 3.7466 -0.54 4.36 -0.9 s0.92 -0.91332 0.92 -1.66 c0 -0.93332 -0.28 -1.6266 -0.84 -2.08 s-1.4933 -0.68 -2.8 -0.68 c-1.2 0 -2.1067 0.24668 -2.72 0.74 s-0.97332 1.2866 -1.08 2.38 l-5.68 0 c0.13332 -2.2667 1.0666 -3.9867 2.8 -5.16 s4.0532 -1.76 6.96 -1.76 z M263.28 34.12 c0 1.76 1.16 2.64 3.48 2.64 c3.04 -0.02668 4.5732 -1.5867 4.6 -4.68 l0 -2.2 c-0.45332 0.45332 -1.6 0.78664 -3.44 0.99996 c-1.6 0.18668 -2.7733 0.51336 -3.52 0.98004 s-1.12 1.22 -1.12 2.26 z M287.28 11.440000000000001 l0 28.56 l-5.68 0 l0 -28.56 l5.68 0 z"/></g>
			</g>
		</svg>
	